# xmcd
#
# Track frame offsets: 
#        150
#        13320
#        25665
#        37309
#        47620
#        59986
#        72311
#        83603
#        97298
#        109426
#        122182
#        135176
#        145685
#        156502
#        166677
#        178368
#        189305
#        199966
#        213552
#        225199
#        237739
#        249796
#        260598
#        272186
#        282748
#        293929
#        304246
#        320434
#        331174
#
# Disc length: 4567 seconds
#
# Revision: 4
# Processed by: cddbd v1.5.2PL0 Copyright (c) Steve Scherf et al.
# Submitted via: ExactAudioCopyFreeDBPlugin 1.0
#
DISCID=c611d51d
DTITLE=Various Artist - Jumping the Shuffle Blues:  Jamaican Sound Sy
DTITLE=stem Classics, 1946-1960
DYEAR=2011
DGENRE=Rhythm and Blues
TTITLE0=Jimmy McCracklin - Blues Blasters' Boogie
TTITLE1=Bill Doggett - Quaker City
TTITLE2=Smiley Lewis - Real Gone Lover
TTITLE3=The Charms - Ling, Ting, Tong
TTITLE4=Gene and Eunice - Ko Ko Mo
TTITLE5=The Bop-A-Loos - South Parkway Mambo
TTITLE6=Johnny Ace - Pledging My Love
TTITLE7=Oscar McLollie - Convicted
TTITLE8=Lloyd Lambert - Heavy Sugar
TTITLE9=T-Bone Walker - T-Bone Shuffle
TTITLE10=Shirley and Lee - Feel So Good
TTITLE11=Barbie Gaye - My Boy Lollypop
TTITLE12=Clarence "Frog Man" Henry - Ain't Got No Home
TTITLE13=Smiley Lewis - Someday (You'll Want Me)
TTITLE14=Sonny Knight - Confidential
TTITLE15=Roy Wright - You Promised
TTITLE16=Big Maybelle - I Don't Want to Cry
TTITLE17=Donnie Elbert - Have I Sinned
TTITLE18=Larry Williams - High School Dance
TTITLE19=Fats Domino - I'm in The Mood for Love
TTITLE20=Doc Bagby - Dumplin's
TTITLE21=Etta James - The Pick Up
TTITLE22=Dave Bartholomew - The Shufflin' Fox
TTITLE23=Bobby Day - Over and Over
TTITLE24=Doc Bagby - You're So Delightful
TTITLE25=Lloyd Trotman - Trottin' In
TTITLE26=Big Jay McNeely - There Is Something On Your Mind (ft Little 
TTITLE26=Sonny)
TTITLE27=Johnny Adams - I Won't Cry
TTITLE28=Donnie Elbert - Will You Ever Be Mine
EXTD=
EXTT0=
EXTT1=
EXTT2=
EXTT3=
EXTT4=
EXTT5=
EXTT6=
EXTT7=
EXTT8=
EXTT9=
EXTT10=
EXTT11=
EXTT12=
EXTT13=
EXTT14=
EXTT15=
EXTT16=
EXTT17=
EXTT18=
EXTT19=
EXTT20=
EXTT21=
EXTT22=
EXTT23=
EXTT24=
EXTT25=
EXTT26=
EXTT27=
EXTT28=
PLAYORDER=
